<svg xmlns="http://www.w3.org/2000/svg" viewBox="0 0 349.69 267.68"><defs><style>.cls-1{fill:#038386;}</style></defs><title>hit</title><g id="Layer_2" data-name="Layer 2"><g id="Object"><path class="cls-1" d="M146.88,99.7q0,42,0,84c0,10.83-4.73,15.62-15.42,15.67-5.33,0-10.66.06-16,0-9.62-.11-14.49-4.95-14.54-14.47-.05-11.33,0-22.66,0-34,0-7-3-10.07-10-10.11q-17.5-.11-35,0c-7,0-9.92,3.09-9.92,10.17q0,50.49,0,101c0,10.94-4.56,15.54-15.38,15.57-5.17,0-10.33,0-15.5,0-10.16-.05-15-4.87-15.05-15Q0,175.25,0,98c0-5.33-.1-10.67,0-16C.25,73.53,5,68.67,13.41,68.48c6.66-.15,13.33-.18,20,0,7.63.25,12.34,5.1,12.54,12.69.14,5.33,0,10.66.06,16,.11,6.46,3.11,9.43,9.54,9.45q17.75.06,35.49,0c7.09,0,9.86-2.86,9.87-10.1q0-40.49,0-81c0-10.67,4.5-15.32,15-15.49,5.66-.09,11.34-.18,17,0,9.33.35,13.9,5.18,13.91,14.59Q146.92,57.21,146.88,99.7Z"/><path class="cls-1" d="M170.51,168.22q0-41.72,0-83.44c0-12.39,4-16.33,16.51-16.35,5.33,0,10.66-.1,16,0,8.32.21,12.86,4.66,13.41,12.95.09,1.33,0,2.66,0,4q0,82.44,0,164.88c0,13.23-4,17.21-17.33,17.21H186.64c-11.88,0-16.12-4.28-16.13-16.34Q170.49,209.69,170.51,168.22Z"/><path class="cls-1" d="M294.42,68.43c13.5,0,27,0,40.49,0,10.18,0,14.61,4.48,14.71,14.61.06,5.83.13,11.67,0,17.49-.22,8.76-5,13.47-13.74,13.71-2.66.07-5.33,0-8,0-8,.09-10.82,2.82-10.83,10.83,0,19.66,0,39.32,0,59a23.17,23.17,0,0,1-.63,6.41c-1.6,5.42-6.18,8.64-12.55,8.82-6.16.17-12.33.12-18.49,0-9.17-.14-14.22-5.16-14.25-14.32-.07-19.83,0-39.66,0-59.48,0-8.79-2.45-11.2-11.28-11.26-3,0-6,.14-9-.1-7.42-.59-11.82-5.25-12-12.73-.13-6.33-.07-12.66,0-19,.07-9.57,4.42-13.94,14.14-14C266.76,68.37,280.59,68.43,294.42,68.43Z"/><path class="cls-1" d="M216.13,23.46c0,3.66.23,7.33,0,11-.49,6.43-4.73,11.11-11.05,11.44a223.93,223.93,0,0,1-23.43,0c-6.11-.32-10.39-4.77-10.93-11a133.59,133.59,0,0,1,0-23.42c.56-6.33,4.68-10.35,11-10.92a136.37,136.37,0,0,1,22.93,0c7,.55,11.11,5,11.56,12,.23,3.65,0,7.32,0,11Z"/><path class="cls-1" d="M316.93,244.73c0,3.33.09,6.66,0,10-.24,7.25-4.91,12.41-12.08,12.73s-14.33.29-21.47,0c-7-.27-11.93-5.12-12.25-12.07-.32-7.15-.3-14.33,0-21.47s5.33-12,12.59-12.21c7-.19,14-.22,21,0,7.2.25,12,5.27,12.25,12.51C317,237.73,316.93,241.23,316.93,244.73Z"/><path class="cls-1" d="M100.87,244.63c0-3.5-.1-7,0-10.49.26-7,4.93-12.09,11.84-12.37,7.31-.3,14.66-.28,22,0,6.89.26,11.72,5.19,12,12.26s.28,14,0,21c-.29,7.43-5.38,12.3-12.89,12.52q-10,.28-20,0c-8-.22-12.82-5.3-13-13.39C100.81,251,100.87,247.79,100.87,244.63Z"/></g></g></svg>